<svg width="24" height="24" viewBox="0 0 24 24" fill="none" xmlns="http://www.w3.org/2000/svg">
<path fill-rule="evenodd" clip-rule="evenodd" d="M2 0C0.895431 0 0 0.89543 0 2V22C0 23.1046 0.89543 24 2 24H22C23.1046 24 24 23.1046 24 22V2C24 0.895431 23.1046 0 22 0H2ZM18.0455 7.4545C17.6061 7.01517 16.8938 7.01517 16.4545 7.4545C16.4439 7.46511 16.4339 7.47635 16.4246 7.48816L11.2161 14.1251L8.0758 10.9848C7.63646 10.5455 6.92415 10.5455 6.48481 10.9848C6.04547 11.4242 6.04547 12.1365 6.48481 12.5758L10.4545 16.5455C10.8938 16.9848 11.6061 16.9848 12.0455 16.5455C12.0553 16.5357 12.0645 16.5254 12.0731 16.5146L18.0614 9.02921C18.4847 8.58872 18.4794 7.88846 18.0455 7.4545Z" fill="url(#paint0_linear)"/>
<defs>
<linearGradient id="paint0_linear" x1="24" y1="0" x2="0" y2="24" gradientUnits="userSpaceOnUse">
<stop stop-color="#008a81"/>
<stop offset="1" stop-color="#008a81"/>
</linearGradient>
</defs>
</svg>
